<?xml version="1.0" standalone="no"?>
<!DOCTYPE svg PUBLIC "-//W3C//DTD SVG 20010904//EN"
 "http://www.w3.org/TR/2001/REC-SVG-20010904/DTD/svg10.dtd">
<svg version="1.0" xmlns="http://www.w3.org/2000/svg"
 width="1024.000000pt" height="1024.000000pt" viewBox="0 0 1024.000000 1024.000000"
 preserveAspectRatio="xMidYMid meet">

<g transform="translate(0.000000,1024.000000) scale(0.100000,-0.100000)"
fill="#000000" stroke="none">
<path d="M2420 8304 c-177 -38 -348 -171 -429 -334 -94 -192 -94 -387 0 -580
l41 -85 1092 -1092 1091 -1093 -1091 -1092 -1092 -1093 -41 -85 c-126 -258
-80 -543 118 -740 201 -199 483 -245 741 -119 l85 41 1093 1092 1092 1091
1093 -1091 1092 -1091 85 -42 c256 -126 542 -80 741 118 198 199 244 483 118
741 l-41 85 -1092 1093 -1091 1092 1091 1093 1092 1092 41 85 c126 258 80 542
-118 741 -199 198 -483 244 -741 118 l-85 -41 -1092 -1092 -1093 -1091 -1092
1091 -1093 1092 -85 41 c-140 68 -285 87 -430 55z"/>
</g>
</svg>
